<svg width="31" height="30" viewBox="0 0 31 30" fill="none" xmlns="http://www.w3.org/2000/svg">
<path d="M25.4702 22.9883L17.2116 15.0005L25.4702 7.07142C25.8841 6.60753 25.8617 5.91139 25.4188 5.47368C24.9758 5.03597 24.2617 5.00427 23.7798 5.40091L15.497 13.2711L7.35915 5.34209C6.88822 4.88597 6.12764 4.88597 5.65671 5.34209C5.42813 5.56298 5.29956 5.86367 5.29956 6.17735C5.29956 6.49102 5.42813 6.79171 5.65671 7.0126L13.7825 14.9299L5.5239 22.8471C5.29532 23.068 5.16675 23.3687 5.16675 23.6824C5.16675 23.9961 5.29532 24.2968 5.5239 24.5176C5.75176 24.7379 6.06022 24.8606 6.38115 24.8588C6.6962 24.8607 6.9995 24.7424 7.22633 24.5294L15.497 16.5886L23.7798 24.6588C24.0077 24.879 24.3161 25.0018 24.6371 25C24.9538 24.9987 25.2574 24.8762 25.4823 24.6588C25.7092 24.4364 25.8356 24.1348 25.8334 23.8211C25.8311 23.5074 25.7004 23.2076 25.4702 22.9883Z" fill="#0F0E0E"/>
</svg>
