<svg width="20" height="21" viewBox="0 0 20 21" fill="none" xmlns="http://www.w3.org/2000/svg">
<g clip-path="url(#clip0_90_1158)">
<path d="M10.3574 20.4882C11.8868 20.2709 13.2276 18.6746 14.0712 16.3173C12.8516 16.0441 11.6071 15.8975 10.3574 15.8801V20.4882Z" fill="#0B0B0B"/>
<path d="M12.8004 20.1133C12.8908 20.0871 12.9809 20.0607 13.0702 20.0318C13.1456 20.0075 13.22 19.9813 13.2943 19.9553C13.3823 19.9249 13.4699 19.8937 13.5572 19.8605C13.6315 19.8323 13.7052 19.8023 13.779 19.7722C13.8642 19.7365 13.9492 19.7009 14.0333 19.6651C14.1068 19.6328 14.1797 19.5989 14.2527 19.5649C14.3352 19.526 14.4174 19.4864 14.4989 19.4452C14.5705 19.4087 14.6419 19.3715 14.7134 19.3333C14.7935 19.2904 14.8731 19.2466 14.9522 19.2015C15.0237 19.161 15.0927 19.1204 15.1623 19.0785C15.2398 19.0308 15.317 18.9832 15.3936 18.9355C15.4622 18.8919 15.5306 18.8476 15.5981 18.8019C15.6735 18.7511 15.7479 18.6982 15.8219 18.6453C15.8884 18.5977 15.9545 18.5502 16.0194 18.5024C16.091 18.4472 16.1643 18.3901 16.236 18.3329C16.2997 18.2821 16.3633 18.2317 16.4259 18.1795C16.4973 18.1201 16.5657 18.0587 16.635 17.9973C16.6957 17.9433 16.7568 17.8899 16.8162 17.8346C16.8844 17.7709 16.9509 17.7049 17.0174 17.6395C17.075 17.5826 17.1333 17.5266 17.1897 17.4683C17.2001 17.4574 17.2101 17.4458 17.2209 17.4346C16.4413 17.0319 15.6201 16.7159 14.7717 16.4921C14.3305 17.8992 13.5453 19.1743 12.4873 20.2016C12.5163 20.1941 12.5452 20.188 12.5742 20.1805C12.6507 20.159 12.7257 20.1354 12.8004 20.1133Z" fill="#0B0B0B"/>
<path d="M19.9996 10.8657H15.7139C15.6976 12.5391 15.4549 14.2025 14.9922 15.8108C15.9357 16.0628 16.8462 16.4251 17.7049 16.8902C19.1147 15.191 19.9218 13.0724 19.9996 10.8657Z" fill="#0B0B0B"/>
<path d="M10.3574 10.1508H14.9994C14.9812 8.53656 14.7444 6.93229 14.2957 5.38159C13.0031 5.67637 11.683 5.8338 10.3574 5.85125V10.1508Z" fill="#0B0B0B"/>
<path d="M10.3574 0.528259V5.13636C11.6071 5.11873 12.8516 4.9723 14.0712 4.69917C13.2276 2.3418 11.8868 0.745549 10.3574 0.528259Z" fill="#0B0B0B"/>
<path d="M10.3574 15.1652C11.683 15.1828 13.0031 15.3402 14.2957 15.635C14.7444 14.0843 14.9812 12.4799 14.9994 10.8657H10.3574V15.1652Z" fill="#0B0B0B"/>
<path d="M17.7049 4.12616C16.8462 4.59128 15.9357 4.9536 14.9922 5.20562C15.4549 6.81391 15.6976 8.47736 15.7139 10.1507H19.9996C19.9216 7.94417 19.1146 5.82555 17.7049 4.12616Z" fill="#0B0B0B"/>
<path d="M17.2227 3.58393C17.2122 3.57328 17.2023 3.56176 17.192 3.55077C17.1354 3.49248 17.0768 3.43628 17.0192 3.37955C16.9529 3.31411 16.8867 3.24796 16.8183 3.18443C16.7592 3.12928 16.6979 3.07709 16.6372 3.02212C16.5679 2.96068 16.4986 2.89873 16.4274 2.83939C16.3656 2.7872 16.3022 2.73729 16.2394 2.6872C16.1679 2.62925 16.0946 2.57166 16.0209 2.51633C15.9563 2.46764 15.8909 2.42051 15.8251 2.37339C15.7504 2.31964 15.6753 2.26606 15.5992 2.21492C15.5324 2.16989 15.4645 2.12591 15.3966 2.0828C15.3193 2.03306 15.2421 1.98437 15.1634 1.93724C15.0945 1.89588 15.0249 1.85504 14.955 1.81542C14.8751 1.76969 14.795 1.72536 14.7142 1.68208C14.6426 1.6463 14.5713 1.60738 14.4997 1.5716C14.4175 1.53007 14.3346 1.4901 14.2496 1.45083C14.178 1.4168 14.1054 1.38363 14.0318 1.35135C13.9471 1.31382 13.8616 1.27996 13.7763 1.24419C13.7026 1.21417 13.6293 1.1845 13.555 1.15622C13.4682 1.12306 13.3803 1.092 13.2923 1.06163C13.218 1.03545 13.1436 1.00944 13.0682 0.985009C12.9789 0.956037 12.8895 0.929683 12.7977 0.903155C12.7233 0.881339 12.6486 0.859174 12.5734 0.839277C12.5446 0.831423 12.5153 0.825315 12.4863 0.81781C13.5443 1.84509 14.3294 3.12003 14.7707 4.52726C15.62 4.30351 16.4424 3.98727 17.2227 3.58393Z" fill="#0B0B0B"/>
<path d="M0 10.1507H4.28575C4.30198 8.47736 4.54475 6.81391 5.00725 5.20562C4.06392 4.95378 3.1534 4.59146 2.29471 4.12616C0.884865 5.82538 0.0778402 7.94417 0 10.1507Z" fill="#0B0B0B"/>
<path d="M9.64252 20.4882V15.8801C8.39289 15.8977 7.14832 16.0441 5.92871 16.3173C6.77221 18.6746 8.11312 20.2709 9.64252 20.4882Z" fill="#0B0B0B"/>
<path d="M9.64294 10.8657H5.00098C5.01913 12.4799 5.25579 14.0843 5.70468 15.635C6.99725 15.3401 8.31721 15.1826 9.64294 15.1652V10.8657Z" fill="#0B0B0B"/>
<path d="M9.64252 0.528259C8.11312 0.745549 6.77221 2.3418 5.92871 4.69917C7.14832 4.97248 8.39289 5.11891 9.64252 5.13636V0.528259Z" fill="#0B0B0B"/>
<path d="M9.64294 5.85125C8.31739 5.8338 6.99725 5.67637 5.70468 5.38159C5.25579 6.93229 5.01913 8.53656 5.00098 10.1508H9.64294V5.85125Z" fill="#0B0B0B"/>
<path d="M7.51086 0.817444C7.48189 0.824949 7.45292 0.831057 7.42395 0.838562C7.3482 0.858807 7.2735 0.881322 7.19811 0.903138C7.1084 0.929317 7.01939 0.955671 6.92933 0.984294C6.85341 1.0089 6.77871 1.03508 6.70401 1.06109C6.61657 1.09198 6.52896 1.1227 6.44239 1.15551C6.36769 1.18413 6.29404 1.2138 6.22004 1.24417C6.13505 1.27995 6.04988 1.31573 5.96593 1.35133C5.89228 1.38362 5.8195 1.41748 5.74654 1.45151C5.66399 1.49043 5.58179 1.53005 5.50028 1.57124C5.42873 1.60771 5.35717 1.64506 5.28579 1.68311C5.20568 1.72604 5.12627 1.77003 5.04738 1.81505C4.97582 1.85502 4.90549 1.89604 4.83655 1.93792C4.75888 1.9847 4.68209 2.03304 4.60564 2.08086C4.53688 2.12484 4.46864 2.16917 4.4011 2.2149C4.3257 2.26569 4.25135 2.31857 4.17735 2.37145C4.11085 2.4191 4.04471 2.46657 3.97961 2.51457C3.90648 2.56955 3.83667 2.62679 3.76302 2.68386C3.69949 2.73465 3.63543 2.78509 3.5733 2.83762C3.50175 2.89661 3.43385 2.9577 3.36491 3.01878C3.30383 3.07324 3.24222 3.12612 3.18253 3.18249C3.11464 3.24585 3.04849 3.31165 2.98217 3.37692C2.92458 3.43382 2.86593 3.49001 2.80939 3.54848C2.79909 3.5593 2.78914 3.57117 2.77832 3.58217C3.55777 3.98498 4.3791 4.30105 5.22749 4.5248C5.6687 3.11844 6.45339 1.8442 7.51086 0.817444Z" fill="#0B0B0B"/>
<path d="M2.98081 17.6369C3.0473 17.7023 3.11345 17.7685 3.18169 17.8322C3.24103 17.8872 3.30212 17.9393 3.36303 17.9943C3.43232 18.0559 3.5016 18.1177 3.57281 18.177C3.6346 18.2289 3.6976 18.279 3.76078 18.3292C3.83234 18.3872 3.90372 18.4448 3.97947 18.5004C4.04387 18.5488 4.10932 18.5956 4.17476 18.6436C4.24946 18.6971 4.32486 18.7507 4.40095 18.8022C4.4678 18.8472 4.53569 18.8912 4.60358 18.9345C4.6809 18.9841 4.75804 19.0328 4.83675 19.0799C4.90569 19.1214 4.97533 19.1621 5.04514 19.2019C5.12508 19.2476 5.20519 19.2919 5.28599 19.335C5.35738 19.3708 5.42893 19.4097 5.50049 19.4455C5.58269 19.4871 5.6656 19.527 5.75059 19.5665C5.82215 19.6002 5.89475 19.6333 5.9684 19.6658C6.05305 19.7033 6.1384 19.7372 6.22392 19.7729C6.29757 19.803 6.37087 19.8326 6.44522 19.8609C6.53196 19.8942 6.61992 19.9253 6.70789 19.9557C6.78224 19.9817 6.85659 20.0079 6.93198 20.0321C7.02134 20.0611 7.1107 20.0876 7.2025 20.114C7.27685 20.1358 7.35155 20.158 7.4266 20.178C7.45557 20.1859 7.48489 20.192 7.51386 20.1995C6.45587 19.172 5.67083 17.8971 5.22945 16.4899C4.38106 16.7138 3.55972 17.0299 2.78027 17.4329C2.79075 17.4435 2.80069 17.455 2.81117 17.466C2.86475 17.524 2.92251 17.5802 2.98081 17.6369Z" fill="#0B0B0B"/>
<path d="M2.29471 16.8902C3.1534 16.4251 4.06392 16.0628 5.00725 15.8108C4.54475 14.2025 4.30198 12.5391 4.28575 10.8657H0C0.0780147 13.0722 0.884865 15.1909 2.29471 16.8902Z" fill="#0B0B0B"/>
</g>
<defs>
<clipPath id="clip0_90_1158">
<rect width="20" height="20" fill="white" transform="translate(0 0.5)"/>
</clipPath>
</defs>
</svg>
