<svg width="30" height="30" viewBox="0 0 30 30" fill="none" xmlns="http://www.w3.org/2000/svg">
<path d="M18.0344 13.0943L14.921 17.692L10.3171 22.2729C8.60488 20.0968 6.73516 17.9887 5.59521 15.439L8.07678 11.6375L11.8829 7.96558C10.6108 9.53771 10.7058 11.8499 12.1679 13.312C13.7321 14.8762 16.2675 14.8762 17.8317 13.312C17.9022 13.2415 17.9703 13.1687 18.0344 13.0943Z" fill="#0B0B0B"/>
<path d="M18.1069 13.0079C19.3901 11.435 19.299 9.11485 17.8322 7.64884C16.268 6.08462 13.7325 6.08462 12.1684 7.64884C12.1027 7.71452 12.0401 7.78185 11.98 7.85069L14.6056 3.58231L18.1678 0.488037C20.8284 1.33026 23.029 3.20556 24.2996 5.64294L21.7008 9.83333L18.1069 13.0079Z" fill="#0B0B0B"/>
<path d="M11.8829 7.96586L5.59514 15.4394C4.97152 14.0459 4.56611 12.5205 4.52428 10.7795C4.52111 10.6806 4.51953 10.5808 4.51953 10.4811C4.51953 7.91951 5.43857 5.5716 6.96559 3.75098L11.8829 7.96586Z" fill="#0B0B0B"/>
<path d="M11.8829 7.96576L6.96533 3.75059C8.88814 1.45811 11.7735 0 15.0001 0C16.1043 0 17.1686 0.170859 18.1679 0.4875L11.8829 7.96576Z" fill="#0B0B0B"/>
<path d="M25.4804 10.4804C25.4804 8.73559 25.054 7.09027 24.2997 5.64307L10.3169 22.2735C11.9055 24.2943 13.3571 26.3742 13.9604 28.9212C13.9798 29.0028 14.0006 29.0981 14.0227 29.2053C14.2414 30.265 15.7588 30.265 15.9776 29.2053C15.9997 29.0981 16.0205 29.0028 16.0399 28.9212C17.6481 22.1306 25.2864 18.6604 25.476 10.7795C25.4787 10.6801 25.4804 10.5805 25.4804 10.4804Z" fill="#0B0B0B"/>
</svg>
