<svg width="30" height="30" viewBox="0 0 30 30" fill="none" xmlns="http://www.w3.org/2000/svg">
<path d="M18.0344 13.0946L14.921 17.6923L10.3171 22.2731C8.60488 20.097 6.73516 17.989 5.59521 15.4393L8.07678 11.6378L11.8829 7.96582C10.6108 9.53795 10.7058 11.8502 12.1679 13.3123C13.7321 14.8765 16.2675 14.8765 17.8317 13.3123C17.9022 13.2418 17.9703 13.1689 18.0344 13.0946Z" fill="#ECB72B"/>
<path d="M18.1069 13.0082C19.3901 11.4353 19.299 9.1151 17.8322 7.64908C16.268 6.08486 13.7325 6.08486 12.1684 7.64908C12.1027 7.71477 12.0401 7.78209 11.98 7.85094L14.6056 3.58256L18.1678 0.488281C20.8284 1.33051 23.029 3.2058 24.2996 5.64318L21.7008 9.83357L18.1069 13.0082Z" fill="#5085F7"/>
<path d="M11.8829 7.96586L5.59514 15.4394C4.97152 14.0459 4.56611 12.5205 4.52428 10.7795C4.52111 10.6806 4.51953 10.5808 4.51953 10.4811C4.51953 7.91951 5.43857 5.5716 6.96559 3.75098L11.8829 7.96586Z" fill="#DA2F2A"/>
<path d="M11.8829 7.96576L6.96533 3.75059C8.88814 1.45811 11.7735 0 15.0001 0C16.1043 0 17.1686 0.170859 18.1679 0.4875L11.8829 7.96576Z" fill="#4274EB"/>
<path d="M25.4804 10.48C25.4804 8.7351 25.054 7.08979 24.2997 5.64258L10.3169 22.273C11.9055 24.2938 13.3571 26.3737 13.9604 28.9207C13.9798 29.0023 14.0006 29.0976 14.0227 29.2048C14.2414 30.2645 15.7588 30.2645 15.9776 29.2048C15.9997 29.0976 16.0205 29.0023 16.0399 28.9207C17.6481 22.1302 25.2864 18.6599 25.476 10.779C25.4787 10.6796 25.4804 10.58 25.4804 10.48Z" fill="#60A850"/>
</svg>
