<svg width="22" height="23" viewBox="0 0 22 23" fill="none" xmlns="http://www.w3.org/2000/svg">
<path d="M17.2193 6.33226C16.698 5.30442 15.9266 4.42413 14.9762 3.77231C14.0257 3.12049 12.9267 2.71806 11.78 2.60202C11.2613 2.54998 10.7387 2.54998 10.22 2.60202C9.07344 2.71814 7.97441 3.12055 7.02392 3.77229C6.07344 4.42404 5.302 5.3042 4.78047 6.33191C4.12432 7.64322 3.87087 9.11937 4.05206 10.5744C4.23324 12.0295 4.84096 13.3984 5.79866 14.5088L10.4688 20.1867C10.5333 20.2651 10.6143 20.3283 10.7062 20.3717C10.798 20.4151 10.8983 20.4376 10.9999 20.4376C11.1014 20.4376 11.2017 20.4151 11.2936 20.3717C11.3854 20.3283 11.4665 20.2651 11.531 20.1867L16.2011 14.5088C17.1588 13.3985 17.7665 12.0296 17.9477 10.5746C18.1289 9.1196 17.8754 7.6435 17.2193 6.33226ZM10.9999 12.1874C10.456 12.1874 9.92429 12.0261 9.47206 11.724C9.01982 11.4218 8.66735 10.9923 8.4592 10.4898C8.25106 9.9873 8.1966 9.43437 8.30271 8.90092C8.40882 8.36747 8.67074 7.87747 9.05533 7.49288C9.43992 7.10828 9.92993 6.84637 10.4634 6.74026C10.9968 6.63415 11.5498 6.68861 12.0523 6.89675C12.5547 7.10489 12.9842 7.45737 13.2864 7.9096C13.5886 8.36184 13.7499 8.89352 13.7499 9.43742C13.749 10.1665 13.459 10.8655 12.9435 11.381C12.4279 11.8966 11.729 12.1866 10.9999 12.1874Z" fill="black"/>
</svg>
