<svg width="135" height="29" viewBox="0 0 135 29" fill="none" xmlns="http://www.w3.org/2000/svg">
<path d="M2.23503 22.48V11.504H7.59759C8.97743 11.504 10.0123 11.7653 10.7022 12.288C11.4026 12.8106 11.7528 13.5006 11.7528 14.3577C11.7528 14.9327 11.6117 15.4344 11.3294 15.863C11.0472 16.2812 10.6604 16.6052 10.1691 16.8352C9.67781 17.0652 9.11333 17.1801 8.47567 17.1801L8.77359 16.5373C9.46351 16.5373 10.075 16.6522 10.6082 16.8822C11.1413 17.1017 11.5542 17.431 11.8469 17.8701C12.15 18.3091 12.3016 18.8474 12.3016 19.4851C12.3016 20.4259 11.9305 21.1629 11.1883 21.696C10.4461 22.2186 9.35375 22.48 7.91119 22.48H2.23503ZM4.75951 20.567H7.72303C8.38159 20.567 8.87813 20.4625 9.21263 20.2534C9.55759 20.0339 9.73007 19.6889 9.73007 19.2185C9.73007 18.7586 9.55759 18.4189 9.21263 18.1993C8.87813 17.9694 8.38159 17.8544 7.72303 17.8544H4.57135V16.0041H7.28399C7.90074 16.0041 8.37114 15.8996 8.69519 15.6905C9.0297 15.471 9.19695 15.1417 9.19695 14.7027C9.19695 14.2741 9.0297 13.9553 8.69519 13.7462C8.37114 13.5267 7.90074 13.4169 7.28399 13.4169H4.75951V20.567ZM16.7234 22.48V17.9955L17.3035 19.5321L12.4741 11.504H15.171L18.8715 17.6662H17.3192L21.0354 11.504H23.5285L18.699 19.5321L19.2635 17.9955V22.48H16.7234Z" fill="#0B0B0B"/>
<path fill-rule="evenodd" clip-rule="evenodd" d="M41.5068 1.48991L43.6657 1.13646L43.8673 2.36728L41.7083 2.72074L41.5068 1.48991ZM31.7052 4.35841L34.0081 3.98139L34.2096 5.21222L31.9067 5.58923L31.7052 4.35841ZM40.4849 2.92103L41.7083 2.72074L43.3204 12.5673L42.0969 12.7676L41.7532 10.668L39.5943 11.0214L39.938 13.1211L38.7146 13.3214L38.5724 12.4525L36.7013 12.7589L37.045 14.8585L35.8216 15.0588L34.2096 5.21222L35.433 5.01192L36.4998 11.528L38.3709 11.2217L38.1693 9.99089L41.5517 9.43715L40.4849 2.92103ZM43.8673 2.36728L45.0907 2.16699L46.7027 12.0136L47.9261 11.8133L48.1276 13.0441L46.9042 13.2444L47.4613 16.6473L46.2379 16.8475L43.8673 2.36728ZM30.6833 5.78953L31.9067 5.58923L34.4314 21.0107L33.208 21.211L30.6833 5.78953ZM48.1276 13.0441L49.351 12.8438L50.0622 17.1879L48.8388 17.3882L48.1276 13.0441ZM47.6154 17.5885L48.8388 17.3882L49.2181 19.705L47.9947 19.9053L47.6154 17.5885ZM34.4314 21.0107L35.6548 20.8104L36.2119 24.2133L34.9885 24.4136L34.4314 21.0107ZM46.7713 20.1056L47.9947 19.9053L48.3622 22.1498L47.1388 22.35L46.7713 20.1056ZM45.9154 22.5503L47.1388 22.35L47.6959 25.7529L36.7572 27.5437L36.2119 24.2133L37.2914 24.0366L37.6352 26.1362L46.271 24.7224L45.9154 22.5503Z" fill="#0B0B0B"/>
<path fill-rule="evenodd" clip-rule="evenodd" d="M62.8932 10.1731V7.79447H53.7109V10.1731H56.9139V21.9604H59.6899V10.1731H62.8928H62.8932ZM62.5067 21.9604H65.1119V17.5429C65.1119 16.9054 65.1331 16.1199 65.6244 15.5042C66.1369 14.8668 66.8629 14.7608 67.3541 14.7608C67.8879 14.7608 68.2296 14.867 68.5712 15.1007L68.9129 12.6795C68.5583 12.5437 68.1822 12.4717 67.8022 12.4668C67.1828 12.4668 66.6705 12.6155 66.2647 12.8704C66.0725 12.9766 65.5173 13.3589 65.1116 14.1447V12.7642H62.5065V21.9604H62.5067ZM76.2138 13.9535C75.3383 12.5944 73.9503 12.4668 73.2456 12.4668C70.5123 12.4668 68.6545 14.6332 68.6545 17.3517C68.6545 20.0488 70.5339 22.2577 73.3737 22.2577C74.0355 22.2577 75.2743 22.109 76.2138 20.7711V21.9604H78.8192V12.7642H76.2138V13.9535ZM73.9076 14.7606C75.4023 14.7606 76.4699 15.8862 76.4699 17.3517C76.4699 18.8172 75.4022 19.964 73.9076 19.964C72.413 19.964 71.3452 18.8171 71.3452 17.3517C71.3452 15.8863 72.4128 14.7606 73.9076 14.7606ZM85.4781 14.973V12.7642H83.0862V10.5766C83.0862 9.81206 83.1503 9.32362 83.3642 8.98379C83.6204 8.6015 83.9619 8.51653 84.3033 8.51653C84.7523 8.51653 85.1149 8.62273 85.4781 8.89882V6.5414C85.0111 6.32184 84.4994 6.2128 83.983 6.2228C83.0222 6.2228 82.2535 6.52017 81.6986 6.98738C80.545 7.94312 80.481 9.38731 80.481 10.2369V12.7642H79.4989V14.973H80.481V21.9604H83.0862V14.973H85.4781ZM91.7114 14.973V12.7642H89.32V10.5766C89.32 9.81206 89.3841 9.32362 89.5975 8.98379C89.8537 8.6015 90.1957 8.51653 90.5372 8.51653C90.9856 8.51653 91.3488 8.62273 91.7114 8.89882V6.5414C91.2445 6.32185 90.7331 6.2128 90.2169 6.2228C89.2559 6.2228 88.4872 6.52017 87.9319 6.98738C86.7788 7.94312 86.7148 9.38731 86.7148 10.2369V12.7642H85.7322V14.973H86.7148V21.9604H89.32V14.973H91.7114ZM92.4362 7.79447V21.9604H97.2194C98.4577 21.9604 99.7605 21.748 100.828 20.8135C101.81 19.9427 102.045 18.7749 102.045 17.9463C102.045 17.203 101.874 16.0986 101.021 15.2916C100.657 14.9518 100.102 14.5482 99.1623 14.3996C99.5467 14.1872 100.764 13.4438 100.764 11.6174C100.764 10.428 100.273 9.32362 99.4402 8.68647C98.2872 7.79447 96.7498 7.79447 95.9594 7.79447H92.4362ZM95.2119 10.0457H96.0234C97.1553 10.0457 98.1591 10.5342 98.1591 11.8297C98.1591 13.635 96.429 13.6775 96.0023 13.6775H95.2119V10.0457ZM95.2119 15.8013H96.2368C96.835 15.8013 97.5397 15.8013 98.1374 16.0774C99.0342 16.4809 99.184 17.2455 99.184 17.6915C99.184 18.2437 98.9918 18.9233 98.3084 19.3268C97.689 19.6879 96.9203 19.7091 96.4078 19.7091H95.2119V15.8013ZM110.456 13.9535C109.58 12.5944 108.192 12.4668 107.487 12.4668C104.754 12.4668 102.896 14.6332 102.896 17.3517C102.896 20.0488 104.775 22.2577 107.615 22.2577C108.277 22.2577 109.516 22.109 110.456 20.7711V21.9604H113.06V12.7642H110.456V13.9535ZM108.149 14.7606C109.644 14.7606 110.712 15.8862 110.712 17.3517C110.712 18.8172 109.644 19.964 108.149 19.964C106.654 19.964 105.587 18.8171 105.587 17.3517C105.587 15.8863 106.655 14.7606 108.149 14.7606ZM114.253 21.9604H116.858V17.2667C116.858 16.7358 116.88 16.0774 117.264 15.4827C117.648 14.9093 118.182 14.6757 118.866 14.6757C119.122 14.6757 119.677 14.7181 120.083 15.1429C120.553 15.6314 120.574 16.4384 120.574 16.9482V21.9604H123.179V16.1837C123.179 15.2917 123.094 14.3785 122.453 13.5926C121.727 12.7006 120.531 12.467 119.72 12.467C118.225 12.467 117.35 13.2741 116.858 13.9537V12.7642H114.253V21.9604ZM131.462 13.9535C130.586 12.5944 129.198 12.4668 128.493 12.4668C125.76 12.4668 123.902 14.6332 123.902 17.3517C123.902 20.0488 125.782 22.2577 128.621 22.2577C129.284 22.2577 130.522 22.109 131.462 20.7711V21.9604H134.067V6.47766H131.462V13.9535ZM129.155 14.7606C130.65 14.7606 131.718 15.8862 131.718 17.3517C131.718 18.8172 130.65 19.964 129.155 19.964C127.661 19.964 126.593 18.8171 126.593 17.3517C126.593 15.8863 127.66 14.7606 129.155 14.7606Z" fill="#0B0B0B"/>
</svg>
